<?xml version="1.0" encoding="utf-8"?>
<!-- Generator: Adobe Illustrator 16.0.2, SVG Export Plug-In . SVG Version: 6.00 Build 0)  -->
<!DOCTYPE svg PUBLIC "-//W3C//DTD SVG 1.1//EN" "http://www.w3.org/Graphics/SVG/1.1/DTD/svg11.dtd">
<svg version="1.1" id="Session_Alive" xmlns="http://www.w3.org/2000/svg" xmlns:xlink="http://www.w3.org/1999/xlink" x="0px" y="0px"
	 width="64px" height="64px" viewBox="0 0 64 64" enable-background="new 0 0 64 64" xml:space="preserve">
<path fill="#FFFFFF" d="M53.3,0H10C4.1,0,0,4.1,0,10v44c0,5.9,4.1,10,10,10h44c5.9,0,10-4.1,10-10V10.7C64,4.8,59.2,0,53.3,0z"/>
<linearGradient id="SVGID_1_" gradientUnits="userSpaceOnUse" x1="32" y1="20" x2="32" y2="64">
	<stop  offset="0.3" style="stop-color:#005FE7"/>
	<stop  offset="0.4" style="stop-color:#2639AD"/>
	<stop  offset="0.5" style="stop-color:#401E84"/>
	<stop  offset="0.6" style="stop-color:#4A1475"/>
</linearGradient>
<path fill="url(#SVGID_1_)" d="M50,35c-1,4-3.4,15.2-4.3,18.6c0,0.1-0.1,0.2-0.1,0.3c0,0,0,0.1,0,0.1c-0.4,1.4-1.5,2.3-2.9,2.3
	c0,0-0.1,0-0.1,0c-1.5-0.1-2.6-1.1-2.9-2.5c-0.6-3.1-4.4-23.6-6.2-33.6C32.1,26.5,30,36.2,29,41c-0.3,1.6-1.6,2.6-3.1,2.6
	c-1.4,0-2.6-1.1-2.9-2.6c-0.7-3.2-1.8-8.4-2.6-12.1c-0.1,0.3-0.2,0.7-0.3,1l-0.2,0.6c-0.2,0.7-0.4,1.4-0.6,2.1
	C18.8,34,17.6,35,16,35c-0.2,0-16,0-16,0v19c0,6,4.1,10,10,10h44c5.9,0,10-4,10-10V35C60.5,35,52.6,35,50,35z"/>
<path fill="#FF272D" d="M49,34c0,0-3.5,15.7-4.4,19.5c0,0.1-0.1,0.3-0.1,0.4c-0.3,1-1,1.5-1.9,1.5c-0.9,0-1.6-0.6-1.8-1.6
	c-0.7-3.9-6.5-35.1-7.2-39.1c-0.4,2-4.2,19.4-5.7,26.3c-0.2,1.1-1,1.7-1.9,1.7c-0.9,0-1.6-0.7-1.8-1.7c-1.1-5.3-3.4-16.1-3.5-16.3
	C20,26.3,19.5,28,19,29.7c-0.3,0.9-0.5,1.7-0.8,2.6C17.9,33.3,17.1,34,16,34c-0.2,0-16,0-16,0v1c0,0,15.8,0,16,0
	c1.6,0,2.8-1,3.3-2.5c0.2-0.7,0.4-1.4,0.6-2.1l0.2-0.6c0.1-0.3,0.2-0.7,0.3-1c0.8,3.7,1.9,8.9,2.6,12.1c0.3,1.5,1.5,2.6,2.9,2.6
	c1.5,0.1,2.7-1,3.1-2.6c1-4.8,3.1-14.5,4.5-20.8c1.9,10,5.6,30.5,6.2,33.6c0.3,1.5,1.4,2.5,2.9,2.5c0,0,0.1,0,0.1,0
	c1.4,0,2.5-0.9,2.9-2.3c0,0,0-0.1,0-0.1c0-0.1,0.1-0.2,0.1-0.3C46.6,50.2,50,35,50,35h14v-1H49z"/>
<linearGradient id="SVGID_2_" gradientUnits="userSpaceOnUse" x1="32" y1="0" x2="32" y2="44">
	<stop  offset="0" style="stop-color:#00CCDA"/>
	<stop  offset="0.1" style="stop-color:#0083FF"/>
	<stop  offset="0.2" style="stop-color:#007AF9"/>
	<stop  offset="0.3" style="stop-color:#005FE7"/>
</linearGradient>
<path fill="url(#SVGID_2_)" d="M15.3,28.9c1.2-4.2,2.5-8.4,3.8-12.6c0.2-0.8,0.8-1.3,1.6-1.5c0.8-0.1,1.5,0.2,1.9,0.9
	c0.1,0.2,0.2,0.5,0.3,0.8c1,4.8,2,9.6,3,14.4c0,0,4.5-19.9,5.9-26.4c0.2-1,0.9-1.6,1.9-1.6c0.9,0,1.7,0.6,1.8,1.6
	c0.6,3.2,6.5,34.9,7.4,39.8c0.6-2.4,2.6-10.7,3.1-12.7c0.3-1.1,1.1-1.6,2.4-1.6c6.2,0,15.6,0,15.6,0V10.7C64,4.8,59.2,0,53.3,0H10
	C4.1,0,0,4,0,10v20h14C14.9,30,15.1,29.7,15.3,28.9z"/>
</svg>
